<?xml version="1.0" encoding="UTF-8"?> <!-- Generator: Adobe Illustrator 17.1.0, SVG Export Plug-In . SVG Version: 6.00 Build 0) --> <svg xmlns="http://www.w3.org/2000/svg" xmlns:xlink="http://www.w3.org/1999/xlink" id="Capa_1" x="0px" y="0px" viewBox="0 0 417.837 417.837" style="enable-background:new 0 0 417.837 417.837; transform:rotate(30deg);" xml:space="preserve"> <g> <path d="M417.119,116.657c-1.238-2.625-3.88-4.299-6.782-4.299h-26.354c-22.623,0-43.686,10.146-57.786,27.835 c-2.582,3.238-2.05,7.958,1.189,10.539c3.238,2.584,7.958,2.049,10.539-1.189c11.239-14.099,28.026-22.185,46.058-22.185h10.465 l-33.592,40.803H222.163l54.928-42.364c2.542-1.96,3.555-5.32,2.519-8.358c-1.035-3.038-3.889-5.08-7.099-5.08h-51.776 c-1.203,0-2.389,0.289-3.456,0.844l-59.817,31.061c-3.677,1.909-5.109,6.437-3.2,10.112c1.909,3.677,6.435,5.106,10.112,3.2 l58.192-30.217h27.94l-52.902,40.803H40.17c-14.06,0-26.846,7.153-34.201,19.137c-7.355,11.982-7.947,26.621-1.581,39.163 l0.351,0.688c7.918,15.599,23.704,25.289,41.198,25.289h92.871c0.065,0,0.128-0.008,0.193-0.01l113.979,52.366 c0.981,0.451,2.05,0.685,3.131,0.685h50.72c0.004,0,0.012,0,0.02,0c4.143,0,7.5-3.357,7.5-7.5c0-2.664-1.389-5.005-3.482-6.335 l-56.004-40.251c32.659-3.874,62.881-18.475,86.494-42.088l28.341-28.341c0.047-0.047,0.083-0.102,0.129-0.149 c0.121-0.127,0.244-0.25,0.358-0.388l45.942-55.803C417.971,122.384,418.358,119.281,417.119,116.657z M257.751,290.479 l-129.974-59.715h72.682l83.085,59.715H257.751z M330.75,198.698c-24.981,24.982-58.197,38.74-93.527,38.74 c-0.532,0-1.05,0.057-1.551,0.162l-28.42-20.426c-1.275-0.917-2.807-1.41-4.377-1.41H93.488c-3.524,0-6.573,2.454-7.327,5.897 c-0.753,3.443,0.993,6.946,4.196,8.418l16.016,7.358H45.936c-11.814,0-22.476-6.544-27.825-17.083l-0.351-0.688 c-3.985-7.852-3.614-17.019,0.992-24.522c4.605-7.504,12.612-11.983,21.417-11.983h37.428c-2.056,12.332-12.795,21.763-25.7,21.763 h-15.98c-4.143,0-7.5,3.357-7.5,7.5s3.357,7.5,7.5,7.5h15.98c21.189,0,38.679-16.135,40.835-36.763h253.555L330.75,198.698z"></path> <path d="M113.896,190.768c-1.97,0-3.899,0.8-5.3,2.2c-1.399,1.39-2.2,3.32-2.2,5.3c0,1.97,0.801,3.91,2.2,5.3 c1.39,1.4,3.33,2.2,5.3,2.2c1.98,0,3.91-0.8,5.301-2.2c1.399-1.39,2.199-3.33,2.199-5.3c0-1.979-0.8-3.91-2.199-5.3 C117.806,191.568,115.867,190.768,113.896,190.768z"></path> <path d="M147.256,190.768c-1.97,0-3.9,0.8-5.3,2.2c-1.391,1.39-2.19,3.33-2.19,5.3s0.8,3.9,2.19,5.3c1.399,1.4,3.33,2.2,5.3,2.2 c1.979,0,3.91-0.8,5.31-2.2c1.391-1.39,2.19-3.33,2.19-5.3c0-1.979-0.8-3.91-2.19-5.3 C151.167,191.568,149.236,190.768,147.256,190.768z"></path> <path d="M180.627,190.768c-1.97,0-3.91,0.8-5.311,2.2c-1.39,1.39-2.189,3.32-2.189,5.3c0,1.97,0.8,3.91,2.189,5.3 c1.4,1.4,3.33,2.2,5.311,2.2c1.97,0,3.91-0.8,5.3-2.2c1.4-1.399,2.2-3.33,2.2-5.3s-0.8-3.91-2.2-5.3 C184.526,191.568,182.596,190.768,180.627,190.768z"></path> <path d="M213.986,205.768c1.971,0,3.91-0.8,5.301-2.2c1.399-1.399,2.199-3.33,2.199-5.3s-0.8-3.91-2.199-5.3 c-1.391-1.4-3.33-2.2-5.301-2.2c-1.97,0-3.909,0.8-5.3,2.2c-1.399,1.39-2.2,3.33-2.2,5.3s0.801,3.9,2.2,5.3 C210.077,204.968,212.016,205.768,213.986,205.768z"></path> <path d="M247.356,205.768c1.971,0,3.9-0.8,5.301-2.2c1.39-1.399,2.199-3.33,2.199-5.3s-0.81-3.91-2.199-5.3 c-1.4-1.4-3.33-2.2-5.301-2.2c-1.979,0-3.909,0.8-5.31,2.2c-1.4,1.39-2.19,3.32-2.19,5.3c0,1.97,0.79,3.9,2.19,5.3 C243.447,204.968,245.377,205.768,247.356,205.768z"></path> </g> <g> </g> <g> </g> <g> </g> <g> </g> <g> </g> <g> </g> <g> </g> <g> </g> <g> </g> <g> </g> <g> </g> <g> </g> <g> </g> <g> </g> <g> </g> </svg> 