<?xml version="1.0" encoding="UTF-8"?> <!-- Generator: Adobe Illustrator 17.1.0, SVG Export Plug-In . SVG Version: 6.00 Build 0) --> <svg xmlns="http://www.w3.org/2000/svg" xmlns:xlink="http://www.w3.org/1999/xlink" id="Capa_1" x="0px" y="0px" viewBox="0 0 368.553 368.553" style="enable-background:new 0 0 368.553 368.553;" xml:space="preserve"> <g> <path d="M323.516,240.17c-4.143,0-7.5,3.357-7.5,7.5s3.357,7.5,7.5,7.5c16.563,0,30.037,13.475,30.037,30.038v0.758 c0,16.563-13.475,30.038-30.037,30.038H45.038C28.475,316.004,15,302.53,15,285.966v-0.758c0-16.563,13.475-30.038,30.038-30.038 h213.239c4.143,0,7.5-3.357,7.5-7.5s-3.357-7.5-7.5-7.5H45.038C20.204,240.17,0,260.374,0,285.208v0.758 c0,24.834,20.204,45.038,45.038,45.038h278.479c24.834,0,45.037-20.204,45.037-45.038v-0.758 C368.553,260.374,348.35,240.17,323.516,240.17z"></path> <path d="M26.394,285.565c0,11.164,9.083,20.246,20.246,20.246s20.246-9.082,20.246-20.246s-9.083-20.247-20.246-20.247 S26.394,274.401,26.394,285.565z M51.886,285.565c0,2.893-2.354,5.246-5.246,5.246s-5.246-2.354-5.246-5.246 c0-2.894,2.354-5.247,5.246-5.247S51.886,282.671,51.886,285.565z"></path> <path d="M94.512,285.587c0,11.164,9.083,20.246,20.246,20.246s20.246-9.082,20.246-20.246s-9.083-20.246-20.246-20.246 S94.512,274.423,94.512,285.587z M120.004,285.587c0,2.893-2.354,5.246-5.246,5.246s-5.246-2.354-5.246-5.246 s2.354-5.246,5.246-5.246S120.004,282.695,120.004,285.587z"></path> <path d="M250.996,265.341c-11.164,0-20.246,9.082-20.246,20.246s9.082,20.246,20.246,20.246s20.246-9.082,20.246-20.246 S262.16,265.341,250.996,265.341z M250.996,290.833c-2.893,0-5.246-2.354-5.246-5.246s2.354-5.246,5.246-5.246 s5.246,2.354,5.246,5.246S253.888,290.833,250.996,290.833z"></path> <path d="M162.631,285.587c0,11.164,9.083,20.246,20.246,20.246s20.247-9.082,20.247-20.246s-9.083-20.246-20.247-20.246 S162.631,274.423,162.631,285.587z M188.124,285.587c0,2.893-2.354,5.246-5.247,5.246c-2.893,0-5.246-2.354-5.246-5.246 s2.354-5.246,5.246-5.246C185.77,280.341,188.124,282.695,188.124,285.587z"></path> <path d="M319.114,305.833c11.164,0,20.246-9.082,20.246-20.246s-9.082-20.246-20.246-20.246s-20.246,9.082-20.246,20.246 S307.95,305.833,319.114,305.833z M319.114,280.341c2.893,0,5.246,2.354,5.246,5.246s-2.354,5.246-5.246,5.246 s-5.246-2.354-5.246-5.246S316.221,280.341,319.114,280.341z"></path> <path d="M79.753,227.67H288.8c4.143,0,7.5-3.357,7.5-7.5V45.049c0-4.143-3.357-7.5-7.5-7.5h-57.827H137.58H79.753 c-4.142,0-7.5,3.357-7.5,7.5s3.358,7.5,7.5,7.5h50.327v66.355c0,4.143,3.358,7.5,7.5,7.5h0.617c2.536,0,4.9-1.281,6.284-3.406 l16.933-25.992l16.933,25.992c1.384,2.125,3.749,3.406,6.284,3.406s4.9-1.281,6.284-3.406l16.934-25.992l16.841,25.852 c1.813,2.781,5.236,4.042,8.42,3.096c3.182-0.945,5.364-3.87,5.364-7.189V52.549H281.3V212.67H87.253V94.277 c0-4.143-3.358-7.5-7.5-7.5s-7.5,3.357-7.5,7.5V220.17C72.253,224.313,75.611,227.67,79.753,227.67z M223.473,93.511l-9.341-14.339 c-1.384-2.125-3.748-3.406-6.284-3.406s-4.9,1.281-6.284,3.406l-16.933,25.992l-16.933-25.992 c-1.384-2.125-3.749-3.406-6.284-3.406s-4.9,1.281-6.284,3.406l-10.05,15.427v-42.05h78.393V93.511z"></path> </g> <g> </g> <g> </g> <g> </g> <g> </g> <g> </g> <g> </g> <g> </g> <g> </g> <g> </g> <g> </g> <g> </g> <g> </g> <g> </g> <g> </g> <g> </g> </svg> 