<?xml version="1.0" encoding="UTF-8"?> <!-- Generator: Adobe Illustrator 17.1.0, SVG Export Plug-In . SVG Version: 6.00 Build 0) --> <svg xmlns="http://www.w3.org/2000/svg" xmlns:xlink="http://www.w3.org/1999/xlink" id="Capa_1" x="0px" y="0px" viewBox="0 0 368.402 368.402" style="enable-background:new 0 0 368.402 368.402;" xml:space="preserve"> <g> <path d="M66.194,279.433c-16.935,0-30.712,13.777-30.712,30.712s13.777,30.712,30.712,30.712s30.712-13.777,30.712-30.712 S83.129,279.433,66.194,279.433z M66.194,325.856c-8.663,0-15.712-7.049-15.712-15.712s7.049-15.712,15.712-15.712 s15.712,7.049,15.712,15.712S74.857,325.856,66.194,325.856z"></path> <path d="M145.992,279.433c-16.935,0-30.712,13.777-30.712,30.712s13.777,30.712,30.712,30.712s30.712-13.777,30.712-30.712 S162.927,279.433,145.992,279.433z M145.992,325.856c-8.663,0-15.712-7.049-15.712-15.712s7.049-15.712,15.712-15.712 s15.712,7.049,15.712,15.712S154.655,325.856,145.992,325.856z"></path> <path d="M360.902,302.645h-122.19V35.046c0-4.143-3.357-7.5-7.5-7.5s-7.5,3.357-7.5,7.5v181.462H213.18v-62.407V79.567 c0-2.502-1.248-4.84-3.327-6.231c-2.078-1.393-4.714-1.655-7.028-0.704L84.648,121.294c-2.811,1.157-4.645,3.896-4.645,6.936 v88.278H7.5c-4.143,0-7.5,3.357-7.5,7.5v86.137c0,4.143,3.357,7.5,7.5,7.5h13.368c4.143,0,7.5-3.357,7.5-7.5s-3.357-7.5-7.5-7.5H15 v-71.137h72.504c4.143,0,7.5-3.357,7.5-7.5v-90.756L198.18,90.767v55.834h-66.058c-4.143,0-7.5,3.357-7.5,7.5v69.907v41.341 c0,4.143,3.357,7.5,7.5,7.5h66.058v29.796h-7.695c-4.143,0-7.5,3.357-7.5,7.5s3.357,7.5,7.5,7.5h15.195c4.143,0,7.5-3.357,7.5-7.5 v-37.296h10.532v37.296c0,4.143,3.357,7.5,7.5,7.5h129.69c4.143,0,7.5-3.357,7.5-7.5S365.045,302.645,360.902,302.645z M139.622,224.008v-62.407h58.558v54.907h-31.979c-4.143,0-7.5,3.357-7.5,7.5s3.357,7.5,7.5,7.5h31.979v26.341h-58.558V224.008z M213.18,257.849v-26.341h10.532v26.341H213.18z"></path> <path d="M258.773,168.291h102.129c4.143,0,7.5-3.357,7.5-7.5V58.661c0-4.143-3.357-7.5-7.5-7.5H258.773c-4.143,0-7.5,3.357-7.5,7.5 v102.13C251.273,164.934,254.631,168.291,258.773,168.291z M353.402,66.161v87.13H278.5l60.396-60.396 c2.929-2.93,2.929-7.678,0-10.607c-2.93-2.928-7.678-2.928-10.607,0l-62.015,62.015V66.161H353.402z"></path> <path d="M368.402,185.91v-3.234c0-4.143-3.357-7.5-7.5-7.5H258.773c-4.143,0-7.5,3.357-7.5,7.5v102.129c0,4.143,3.357,7.5,7.5,7.5 h102.129c4.143,0,7.5-3.357,7.5-7.5V185.92V185.91z M346.034,190.176l-79.761,79.761v-79.761H346.034z M280.12,277.305 l73.282-73.282v73.282H280.12z"></path> </g> <g> </g> <g> </g> <g> </g> <g> </g> <g> </g> <g> </g> <g> </g> <g> </g> <g> </g> <g> </g> <g> </g> <g> </g> <g> </g> <g> </g> <g> </g> </svg> 