<?xml version="1.0" encoding="UTF-8"?> <!-- Generator: Adobe Illustrator 17.1.0, SVG Export Plug-In . SVG Version: 6.00 Build 0) --> <svg xmlns="http://www.w3.org/2000/svg" xmlns:xlink="http://www.w3.org/1999/xlink" id="Capa_1" x="0px" y="0px" viewBox="0 0 380.908 380.908" style="enable-background:new 0 0 380.908 380.908;" xml:space="preserve"> <g> <path d="M358.055,260.792c-4.143,0-7.5,3.358-7.5,7.5c0,20.026-16.293,36.319-36.319,36.319s-36.319-16.293-36.319-36.319 c0-4.142-3.357-7.5-7.5-7.5s-7.5,3.358-7.5,7.5c0,20.026-16.293,36.319-36.319,36.319s-36.32-16.293-36.32-36.319 c0-4.142-3.358-7.5-7.5-7.5s-7.5,3.358-7.5,7.5c0,20.026-16.293,36.319-36.319,36.319s-36.319-16.293-36.319-36.319 c0-4.142-3.358-7.5-7.5-7.5s-7.5,3.358-7.5,7.5c0,20.026-16.293,36.319-36.319,36.319S15,288.318,15,268.292 c0-4.142-3.358-7.5-7.5-7.5s-7.5,3.358-7.5,7.5c0,28.297,23.022,51.319,51.319,51.319c18.531,0,34.797-9.874,43.819-24.635 c9.022,14.761,25.289,24.635,43.819,24.635c18.531,0,34.797-9.874,43.819-24.636c9.023,14.762,25.289,24.636,43.82,24.636 c18.531,0,34.797-9.874,43.819-24.635c9.022,14.761,25.289,24.635,43.819,24.635c28.298,0,51.319-23.022,51.319-51.319 C365.555,264.15,362.198,260.792,358.055,260.792z"></path> <path d="M380.166,200.611c-1.249-2.597-3.876-4.248-6.758-4.248H70.335v-95.309V76.297h48.967v17.257H96.454 c-4.142,0-7.5,3.358-7.5,7.5s3.358,7.5,7.5,7.5h22.849v29.684c0,4.142,3.358,7.5,7.5,7.5h157.796l32.867,34.859 c1.476,1.565,3.465,2.355,5.458,2.355c1.846,0,3.695-0.677,5.145-2.043c3.014-2.842,3.153-7.588,0.312-10.602l-35.088-37.214 c-1.417-1.503-3.392-2.355-5.457-2.355H134.302v-29.684V68.797c0-4.142-3.358-7.5-7.5-7.5H62.835c-4.142,0-7.5,3.358-7.5,7.5 v32.257v95.309H34.71c-4.142,0-7.5,3.358-7.5,7.5v0.394c0,26.533,3.538,52.965,10.517,78.563c0.909,3.336,3.933,5.529,7.231,5.529 c0.653,0,1.317-0.086,1.977-0.266c3.996-1.089,6.353-5.212,5.263-9.208c-6.004-22.025-9.327-44.703-9.899-67.511h315.524 l-51.266,64.212c-2.584,3.237-2.055,7.956,1.182,10.541c3.236,2.583,7.956,2.055,10.541-1.182l60.989-76.392 C381.067,206.29,381.416,203.207,380.166,200.611z"></path> <path d="M82.604,243.863c4.142,0,7.5-3.358,7.5-7.5s-3.358-7.5-7.5-7.5H62.835c-4.142,0-7.5,3.358-7.5,7.5s3.358,7.5,7.5,7.5 H82.604z"></path> <path d="M136.687,243.863c4.142,0,7.5-3.358,7.5-7.5s-3.358-7.5-7.5-7.5h-19.769c-4.142,0-7.5,3.358-7.5,7.5s3.358,7.5,7.5,7.5 H136.687z"></path> <path d="M171.001,243.863h19.769c4.143,0,7.5-3.358,7.5-7.5s-3.357-7.5-7.5-7.5h-19.769c-4.142,0-7.5,3.358-7.5,7.5 S166.859,243.863,171.001,243.863z"></path> <path d="M244.853,243.863c4.143,0,7.5-3.358,7.5-7.5s-3.357-7.5-7.5-7.5h-19.769c-4.143,0-7.5,3.358-7.5,7.5s3.357,7.5,7.5,7.5 H244.853z"></path> <path d="M298.937,243.863c4.143,0,7.5-3.358,7.5-7.5s-3.357-7.5-7.5-7.5h-19.77c-4.143,0-7.5,3.358-7.5,7.5s3.357,7.5,7.5,7.5 H298.937z"></path> <path d="M279.164,163.864c-1.97,0-3.9,0.8-5.3,2.2c-1.4,1.39-2.2,3.33-2.2,5.3c0,1.97,0.8,3.91,2.2,5.3c1.399,1.4,3.33,2.2,5.3,2.2 c1.979,0,3.91-0.8,5.31-2.2c1.391-1.39,2.19-3.33,2.19-5.3c0-1.97-0.8-3.91-2.19-5.3 C283.074,164.664,281.143,163.864,279.164,163.864z"></path> <path d="M219.784,166.064c-1.4,1.39-2.2,3.32-2.2,5.3c0,1.97,0.8,3.91,2.2,5.3c1.39,1.4,3.319,2.2,5.3,2.2 c1.979,0,3.91-0.8,5.3-2.2c1.4-1.39,2.2-3.33,2.2-5.3c0-1.98-0.8-3.91-2.2-5.3c-1.39-1.4-3.33-2.2-5.3-2.2 S221.173,164.664,219.784,166.064z"></path> <path d="M165.693,166.064c-1.39,1.39-2.19,3.33-2.19,5.3c0,1.97,0.8,3.9,2.19,5.3c1.4,1.4,3.33,2.2,5.31,2.2 c1.97,0,3.91-0.8,5.3-2.2c1.4-1.4,2.2-3.33,2.2-5.3c0-1.97-0.8-3.91-2.2-5.3c-1.39-1.4-3.33-2.2-5.3-2.2 C169.023,163.864,167.093,164.664,165.693,166.064z"></path> <path d="M111.613,166.053c-1.39,1.4-2.19,3.34-2.19,5.31c0,1.97,0.8,3.91,2.19,5.3c1.4,1.4,3.33,2.2,5.3,2.2 c1.98,0,3.91-0.8,5.31-2.2c1.39-1.39,2.2-3.33,2.2-5.3c0-1.97-0.81-3.91-2.2-5.31c-1.4-1.39-3.33-2.19-5.31-2.19 C114.943,163.864,113.014,164.664,111.613,166.053z"></path> </g> <g> </g> <g> </g> <g> </g> <g> </g> <g> </g> <g> </g> <g> </g> <g> </g> <g> </g> <g> </g> <g> </g> <g> </g> <g> </g> <g> </g> <g> </g> </svg> 