<?xml version="1.0" encoding="UTF-8"?> <!-- Generator: Adobe Illustrator 17.1.0, SVG Export Plug-In . SVG Version: 6.00 Build 0) --> <svg xmlns="http://www.w3.org/2000/svg" xmlns:xlink="http://www.w3.org/1999/xlink" id="Capa_1" x="0px" y="0px" viewBox="0 0 414.193 414.193" style="enable-background:new 0 0 414.193 414.193;" xml:space="preserve"> <path d="M408.215,170.941l-43.354-8.979L314.53,85.703c-1.389-2.104-3.74-3.369-6.26-3.369H80.921c-4.143,0-7.5,3.357-7.5,7.5 v64.755H7.5c-4.143,0-7.5,3.357-7.5,7.5s3.357,7.5,7.5,7.5h103.333c4.143,0,7.5-3.357,7.5-7.5s-3.357-7.5-7.5-7.5H88.421V97.334 h215.813l49.813,75.475c1.093,1.656,2.797,2.811,4.738,3.213l40.407,8.369v57.285H254.046V122.097c0-4.143-3.357-7.5-7.5-7.5 s-7.5,3.357-7.5,7.5v119.579H88.421v-28.753h22.412c4.143,0,7.5-3.357,7.5-7.5s-3.357-7.5-7.5-7.5H88.421v-6.977 c0-4.143-3.357-7.5-7.5-7.5s-7.5,3.357-7.5,7.5v6.977H54.167c-4.143,0-7.5,3.357-7.5,7.5s3.357,7.5,7.5,7.5h19.254v36.253v49.365 c0,4.143,3.357,7.5,7.5,7.5h47.084c3.412,14.771,16.664,25.818,32.457,25.818c18.372,0,33.318-14.946,33.318-33.318 s-14.946-33.318-33.318-33.318c-15.793,0-29.044,11.048-32.457,25.818H88.421v-34.365h310.772v34.365h-38.618 c-3.412-14.771-16.664-25.818-32.457-25.818s-29.044,11.048-32.457,25.818h-82.566c-4.143,0-7.5,3.357-7.5,7.5s3.357,7.5,7.5,7.5 h82.566c3.412,14.771,16.664,25.818,32.457,25.818s29.044-11.048,32.457-25.818h46.118c4.143,0,7.5-3.357,7.5-7.5v-49.365v-70.891 C414.193,174.729,411.696,171.662,408.215,170.941z M160.462,280.223c10.101,0,18.318,8.218,18.318,18.318 s-8.218,18.318-18.318,18.318s-18.318-8.218-18.318-18.318S150.361,280.223,160.462,280.223z M328.119,316.859 c-10.101,0-18.318-8.218-18.318-18.318s8.218-18.318,18.318-18.318s18.318,8.218,18.318,18.318S338.22,316.859,328.119,316.859z"></path> <g> </g> <g> </g> <g> </g> <g> </g> <g> </g> <g> </g> <g> </g> <g> </g> <g> </g> <g> </g> <g> </g> <g> </g> <g> </g> <g> </g> <g> </g> </svg> 