<?xml version="1.0" standalone="no"?>
<!DOCTYPE svg PUBLIC "-//W3C//DTD SVG 20010904//EN"
 "http://www.w3.org/TR/2001/REC-SVG-20010904/DTD/svg10.dtd">
<svg version="1.0" xmlns="http://www.w3.org/2000/svg"
 width="267.000000pt" height="267.000000pt" viewBox="0 0 267.000000 267.000000"
 preserveAspectRatio="xMidYMid meet">
<metadata>
Created by potrace 1.14, written by Peter Selinger 2001-2017
</metadata>
<g transform="translate(0.000000,267.000000) scale(0.100000,-0.100000)"
fill="#000000" stroke="none">
<path d="M578 1738 c-13 -13 -17 -27 -13 -50 8 -43 12 -48 40 -48 13 0 27 -5
31 -12 4 -6 3 -8 -4 -4 -6 4 -10 -6 -8 -26 1 -18 -1 -43 -6 -55 -4 -14 -2 -23
7 -27 11 -4 11 -11 2 -36 -9 -23 -9 -35 1 -50 7 -11 9 -20 5 -19 -22 4 -25 -3
-7 -17 10 -8 13 -12 5 -8 -11 5 -13 3 -8 -9 3 -9 1 -19 -5 -23 -7 -4 -8 -3 -4
4 4 7 2 12 -3 12 -6 0 -11 -8 -12 -17 0 -15 -2 -15 -9 2 -7 19 -8 19 -18 -5
-9 -23 -8 -57 3 -87 5 -14 104 -14 123 0 8 6 12 6 12 -1 0 -13 78 -14 86 0 4
6 0 14 -7 19 -10 6 -11 9 -1 9 6 0 12 8 12 18 0 14 -2 15 -10 2 -6 -9 -10 -10
-10 -3 0 6 5 15 11 18 6 5 4 12 -8 22 -17 14 -17 14 0 9 11 -3 16 -2 12 4 -9
14 -32 12 -38 -2 -3 -7 -6 -1 -7 15 -4 45 -4 47 -20 58 -13 9 -12 10 3 5 10
-3 17 0 17 7 0 9 14 12 45 11 31 -1 43 2 38 10 -4 6 2 4 12 -4 17 -14 18 -13
12 2 -4 12 -2 15 7 12 9 -4 13 3 11 20 -2 14 1 26 6 26 4 0 6 7 2 16 -5 13 -8
13 -15 2 -8 -10 -9 -9 -5 4 7 20 -16 31 -33 15 -10 -9 -11 -9 -5 2 6 10 2 12
-14 6 -12 -4 -21 -2 -21 4 0 7 -8 7 -26 1 -34 -13 -41 -13 -26 2 14 14 16 48
3 48 -5 0 -12 7 -15 16 -6 15 -4 15 11 3 15 -12 16 -12 10 5 -6 16 -5 17 8 6
12 -10 18 -10 32 1 14 12 16 12 8 0 -6 -11 -1 -13 23 -9 20 3 33 0 36 -8 3 -9
-1 -11 -12 -8 -14 5 -13 3 2 -10 18 -15 18 -16 2 -16 -9 0 -15 -4 -11 -10 3
-5 13 -7 23 -4 14 5 15 4 2 -5 -16 -11 -14 -12 37 -17 36 -3 48 8 55 49 5 23
2 27 -11 22 -12 -5 -13 -3 -4 6 9 9 16 8 32 -3 12 -8 18 -18 14 -22 -10 -10
-12 -56 -1 -50 10 6 6 -26 -6 -45 -7 -11 -5 -13 9 -7 15 6 16 4 4 -10 -19 -23
-21 -47 -3 -40 11 4 11 1 -2 -19 -19 -29 -19 -35 -2 -47 10 -7 10 -11 -4 -22
-10 -7 -14 -17 -10 -22 4 -4 0 -3 -10 4 -12 10 -18 10 -23 1 -4 -6 -1 -15 6
-20 11 -7 10 -9 -5 -9 -20 0 -20 0 0 -16 10 -8 14 -13 8 -10 -7 3 -11 -4 -11
-19 0 -14 5 -26 11 -27 40 -5 76 -2 76 7 0 5 4 4 9 -4 9 -13 20 -13 66 4 16 5
17 5 5 -4 -12 -9 -10 -11 13 -11 19 0 26 4 21 12 -5 7 -3 8 7 2 21 -13 39 -14
39 -1 0 9 2 9 8 1 8 -14 93 -14 85 0 -4 5 1 7 10 3 16 -6 21 4 20 41 -1 6 3
12 8 12 5 0 9 -5 9 -11 0 -6 9 -8 23 -4 14 4 18 3 9 -3 -10 -7 -10 -11 2 -21
25 -21 106 -35 106 -18 0 9 2 9 8 1 4 -6 22 -11 40 -12 23 0 32 4 33 16 0 10
3 12 6 5 6 -17 44 2 39 20 -1 6 -1 9 1 5 9 -15 25 -8 19 8 -5 14 -4 15 9 4 17
-14 21 -35 4 -24 -7 4 -10 -1 -7 -12 2 -11 13 -20 27 -22 17 -3 21 0 15 10 -5
9 -2 8 11 -2 21 -17 24 -17 36 2 6 8 9 9 9 2 0 -14 70 -16 86 -3 5 4 11 29 13
54 2 44 1 46 -21 40 -18 -5 -20 -4 -8 4 14 10 7 15 -13 12 -4 -1 -3 7 2 18 6
10 7 22 3 26 -4 5 -1 5 6 1 7 -4 10 -11 8 -15 -3 -4 22 -7 54 -7 39 0 57 3 53
10 -4 6 1 5 10 -3 9 -7 24 -10 33 -7 14 5 15 4 5 -8 -6 -7 -10 -20 -8 -27 2
-8 2 -11 0 -6 -9 14 -25 7 -19 -9 3 -8 2 -12 -4 -9 -5 3 -8 -10 -6 -30 3 -45
19 -55 73 -50 23 2 45 0 49 -6 4 -6 13 -4 25 7 11 10 19 12 19 6 0 -19 18 -14
30 8 8 14 8 26 -1 41 -8 15 -8 19 0 15 21 -13 11 15 -14 38 -13 12 -29 35 -34
49 -6 15 -15 27 -21 27 -6 0 -8 -5 -4 -12 4 -7 3 -8 -5 -4 -9 6 -9 11 0 22 9
11 9 14 -1 14 -7 0 -10 7 -6 16 8 21 -14 50 -24 33 -4 -6 -7 6 -6 27 1 28 -3
38 -12 36 -8 -1 -11 2 -7 7 8 14 -5 61 -17 61 -5 0 -6 -5 -3 -10 3 -5 2 -10
-4 -10 -5 0 -9 9 -8 19 0 11 5 17 10 14 5 -3 3 5 -4 18 -7 13 -14 30 -15 37
-4 23 -25 41 -41 35 -10 -4 -14 -2 -10 4 4 6 -3 9 -16 8 -34 -2 -67 -15 -67
-26 0 -6 4 -8 8 -5 5 3 9 -1 9 -8 0 -9 -7 -12 -16 -8 -14 5 -14 4 -2 -12 10
-12 11 -16 2 -14 -17 4 -44 -59 -28 -66 7 -2 4 -5 -7 -5 -16 -1 -16 -3 -6 -17
11 -12 11 -15 -1 -12 -9 2 -14 -6 -14 -23 1 -18 -4 -25 -12 -22 -7 3 -14 -1
-15 -8 -3 -30 -5 -35 -21 -66 -16 -30 -16 -32 1 -36 12 -3 11 -5 -6 -6 -13 0
-21 -4 -18 -9 2 -4 -2 -15 -9 -25 -11 -16 -13 -16 -19 -2 -3 9 -2 13 3 10 5
-3 12 -1 16 5 3 5 0 10 -7 10 -10 0 -9 3 2 10 12 8 12 10 -4 16 -12 5 -14 9
-6 14 15 9 -9 52 -26 46 -6 -2 -11 3 -10 12 1 10 -6 16 -16 16 -10 -1 -16 2
-13 6 8 13 -22 19 -35 7 -10 -9 -10 -6 0 13 13 25 13 25 -8 7 -15 -14 -22 -15
-28 -6 -5 8 -3 10 6 4 9 -5 11 -4 6 4 -4 6 -16 9 -27 6 -11 -4 -19 -2 -19 6 0
8 -11 9 -32 5 -24 -4 -29 -3 -18 4 12 8 11 11 -8 16 -13 4 -20 10 -15 13 5 3
14 17 21 31 7 14 10 17 8 8 -3 -10 -1 -18 4 -18 6 0 10 4 10 9 0 9 28 6 60 -6
8 -4 18 -6 22 -5 3 1 9 -5 12 -14 3 -8 1 -12 -4 -9 -5 3 -7 0 -4 -9 7 -19 54
-37 83 -33 16 2 25 12 28 26 2 16 -1 20 -9 15 -10 -6 -10 -4 0 8 8 10 10 26 6
44 -7 25 -8 26 -15 9 -7 -18 -8 -18 -8 3 -1 20 -41 77 -41 58 0 -4 -7 0 -16 9
-11 11 -25 14 -41 10 -14 -3 -22 -2 -19 3 8 13 -27 10 -36 -3 -5 -6 -8 -5 -8
3 0 7 -5 10 -10 7 -6 -4 -7 -12 -3 -18 4 -7 -1 -6 -10 2 -15 12 -22 12 -42 1
-13 -7 -22 -17 -19 -21 3 -5 -2 -6 -11 -3 -11 5 -18 0 -22 -15 -3 -11 -10 -21
-15 -21 -6 0 -4 -8 3 -17 10 -11 10 -14 2 -9 -7 4 -13 2 -13 -3 0 -6 -5 -11
-11 -11 -8 0 -8 4 0 14 8 10 9 16 1 21 -5 3 -10 1 -10 -6 0 -7 -2 -10 -5 -7
-3 3 -2 13 1 22 5 14 9 15 15 4 6 -9 9 -5 9 13 0 15 -8 33 -17 40 -15 12 -16
12 -8 -1 6 -12 5 -13 -6 -2 -7 6 -20 12 -28 12 -14 0 -14 -2 -1 -11 12 -9 11
-10 -5 -4 -11 4 -26 10 -34 13 -9 3 -12 1 -7 -6 3 -6 2 -14 -4 -17 -6 -4 -9
-1 -8 6 2 7 -12 13 -37 15 -31 3 -36 1 -25 -7 12 -9 11 -9 -5 -3 -33 12 -131
14 -114 2 11 -7 9 -8 -6 -3 -43 15 -55 17 -55 7 0 -5 -7 -13 -16 -16 -14 -5
-15 -4 -4 9 10 12 10 15 -1 16 -8 0 -29 2 -47 4 -18 2 -30 0 -27 -5 3 -4 -3
-7 -12 -5 -10 2 -18 4 -18 5 0 1 -21 3 -47 5 -33 2 -46 -1 -41 -9 5 -8 3 -8
-8 0 -17 13 -58 13 -78 0 -10 -6 -12 -5 -7 2 12 19 -46 10 -66 -10z m512 -2
c0 -3 -4 -8 -10 -11 -5 -3 -10 -1 -10 4 0 6 5 11 10 11 6 0 10 -2 10 -4z m455
-6 c3 -5 1 -10 -4 -10 -6 0 -11 5 -11 10 0 6 2 10 4 10 3 0 8 -4 11 -10z
m-597 -65 c-3 -3 -9 2 -12 12 -6 14 -5 15 5 6 7 -7 10 -15 7 -18z m-343 -5 c3
-5 1 -10 -4 -10 -6 0 -11 5 -11 10 0 6 2 10 4 10 3 0 8 -4 11 -10z m880 0 c3
-5 1 -10 -4 -10 -6 0 -11 5 -11 10 0 6 2 10 4 10 3 0 8 -4 11 -10z m-281 -41
c8 -9 8 -10 -1 -5 -9 5 -13 0 -13 -13 0 -12 4 -21 9 -21 14 0 21 -29 9 -36 -6
-4 -8 -3 -4 4 3 6 2 13 -3 16 -5 3 -12 -2 -15 -11 -5 -12 -9 -14 -18 -5 -7 7
-22 12 -34 12 -13 0 -26 5 -29 10 -4 6 -12 7 -18 4 -8 -5 -8 -3 1 7 6 7 12 21
12 30 0 10 -6 19 -12 22 -7 2 14 3 46 1 33 -2 64 -9 70 -15z m-471 -24 c-3 -9
-8 -14 -10 -11 -3 3 -2 9 2 15 9 16 15 13 8 -4z m572 -15 c-4 -23 -2 -28 9
-24 8 3 17 0 21 -6 3 -6 3 -10 -2 -9 -21 4 -21 -3 -1 -26 14 -17 29 -24 42
-20 12 3 15 2 8 -1 -6 -3 -9 -10 -6 -15 3 -6 11 -5 20 2 12 10 14 10 12 -1 -3
-14 78 -42 121 -42 18 0 20 -2 10 -9 -11 -7 -10 -9 5 -9 18 0 18 -1 -3 -24
-12 -13 -19 -26 -14 -28 4 -3 2 -3 -4 -2 -7 2 -17 -5 -22 -14 -10 -16 -10 -16
-11 1 0 12 -8 17 -27 17 -29 1 -81 36 -69 47 13 13 -28 43 -58 43 -23 0 -27
-3 -16 -9 8 -6 18 -7 24 -4 5 3 6 1 2 -5 -4 -6 -13 -9 -22 -5 -8 3 -22 -3 -30
-13 -14 -18 -14 -18 -4 4 10 20 9 23 -7 20 -10 -2 -21 -10 -25 -18 -5 -12 -7
-12 -7 3 -1 9 -8 17 -17 17 -8 0 -13 -4 -9 -9 3 -5 0 -13 -6 -17 -8 -4 -9 -3
-5 4 4 7 3 12 -2 12 -17 0 -22 -30 -11 -53 7 -12 8 -19 4 -15 -4 4 -14 0 -22
-10 -8 -9 -11 -11 -7 -3 5 10 -2 13 -35 9 -34 -3 -41 -1 -41 14 0 10 -6 18
-12 18 -8 0 -9 3 -3 8 14 10 19 46 6 37 -7 -4 -8 0 -4 10 5 13 7 14 14 3 5 -7
9 -9 9 -4 0 5 6 3 14 -3 10 -9 16 -9 21 -1 5 8 11 7 22 -1 12 -10 16 -10 23 0
4 8 13 10 19 7 6 -4 11 0 11 8 0 9 4 16 10 16 11 0 9 28 -3 48 -10 14 30 33
52 24 9 -3 12 -1 7 6 -4 7 -2 12 3 12 6 0 10 3 10 8 -2 14 1 32 6 32 3 0 3
-13 0 -30z m559 -4 c-3 -17 2 -28 13 -35 11 -6 13 -11 5 -11 -7 0 -10 -5 -7
-10 4 -6 11 -7 17 -4 7 4 8 2 4 -4 -4 -7 -17 -12 -30 -12 -12 0 -27 -5 -34
-12 -8 -8 -10 -5 -6 16 3 20 1 26 -8 21 -7 -4 -5 0 6 9 10 8 15 19 11 25 -3 6
1 11 9 11 9 0 15 3 15 8 -2 11 1 22 5 22 3 0 3 -11 0 -24z m-614 -6 c0 -5 -4
-10 -10 -10 -5 0 -10 5 -10 10 0 6 5 10 10 10 6 0 10 -4 10 -10z m730 -20 c0
-5 -2 -10 -4 -10 -3 0 -8 5 -11 10 -3 6 -1 10 4 10 6 0 11 -4 11 -10z m-77
-65 c-3 -9 -8 -14 -10 -11 -3 3 -2 9 2 15 9 16 15 13 8 -4z m-38 -5 c-3 -5
-12 -10 -18 -10 -7 0 -6 4 3 10 19 12 23 12 15 0z m-868 -62 c-3 -8 -6 -5 -6
6 -1 11 2 17 5 13 3 -3 4 -12 1 -19z m853 -8 c0 -5 -5 -10 -11 -10 -5 0 -7 5
-4 10 3 6 8 10 11 10 2 0 4 -4 4 -10z m-546 -42 c-3 -4 -11 -8 -17 -7 -9 0 -9
2 0 5 7 3 9 13 6 22 -4 14 -3 14 5 2 6 -8 8 -18 6 -22z m110 6 c3 -8 2 -12 -4
-9 -6 3 -10 10 -10 16 0 14 7 11 14 -7z m655 -17 c0 -9 -2 -8 -6 1 -2 6 -10 9
-15 6 -7 -4 -8 -2 -4 5 9 13 26 5 25 -12z m-752 -11 c0 -8 -6 -12 -15 -9 -11
5 -11 7 0 14 7 5 13 9 14 9 0 0 1 -6 1 -14z m140 8 c-3 -3 -12 -4 -19 -1 -8 3
-5 6 6 6 11 1 17 -2 13 -5z m-73 -70 c3 -8 2 -12 -4 -9 -6 3 -10 10 -10 16 0
14 7 11 14 -7z m397 -17 c-10 -9 -11 -8 -5 6 3 10 9 15 12 12 3 -3 0 -11 -7
-18z m-816 3 c3 -5 1 -10 -4 -10 -6 0 -11 5 -11 10 0 6 2 10 4 10 3 0 8 -4 11
-10z m-358 -6 c-3 -3 -12 -4 -19 -1 -8 3 -5 6 6 6 11 1 17 -2 13 -5z"/>
<path d="M113 1198 c-5 -7 -20 -44 -32 -82 -12 -38 -26 -77 -31 -86 -7 -13 -5
-20 6 -24 23 -9 24 -8 34 18 5 14 19 25 35 28 26 5 33 1 58 -35 7 -11 19 -16
28 -12 14 5 13 16 -13 88 -16 45 -33 89 -37 97 -11 20 -35 24 -48 8z m34 -84
c10 -29 10 -31 -12 -26 -21 4 -22 7 -13 34 12 33 12 33 25 -8z"/>
<path d="M244 1199 c-10 -17 -4 -182 7 -193 19 -20 32 13 31 76 l-2 63 30 -61
c34 -69 50 -87 72 -79 13 5 15 24 13 98 -3 111 -2 104 -20 104 -16 0 -18 -14
-17 -86 l1 -45 -33 64 c-33 62 -65 85 -82 59z"/>
<path d="M412 1192 c2 -10 16 -19 32 -22 l30 -5 0 -80 c1 -68 4 -80 19 -83 19
-4 19 -1 19 106 1 61 1 62 29 62 32 0 48 18 28 31 -8 4 -47 8 -87 8 -63 0 -73
-3 -70 -17z"/>
<path d="M616 1193 c-3 -10 -6 -22 -7 -28 0 -5 -6 -19 -12 -30 -6 -11 -18 -41
-27 -67 -19 -54 -13 -76 16 -60 11 6 18 13 17 16 -9 19 1 26 36 26 30 0 40 -4
44 -20 5 -19 33 -37 43 -28 7 8 -57 192 -70 200 -18 13 -34 9 -40 -9z m34 -62
c0 -5 3 -16 6 -25 4 -12 0 -16 -16 -16 -16 0 -20 4 -16 16 3 9 6 20 6 25 0 5
5 9 10 9 6 0 10 -4 10 -9z"/>
<path d="M749 1202 c-1 -4 -2 -49 -3 -99 -1 -73 2 -94 13 -98 19 -7 33 14 28
43 -3 12 0 25 6 29 10 6 67 -49 67 -66 0 -5 18 -10 39 -9 34 0 41 4 49 27 9
24 14 27 45 23 27 -3 37 -10 41 -27 4 -15 13 -23 25 -22 23 1 21 14 -17 121
-23 63 -33 80 -51 83 -21 3 -35 -17 -46 -67 -2 -8 -12 -39 -22 -67 l-18 -53
-29 36 c-16 21 -24 39 -19 43 34 22 32 80 -4 99 -21 11 -102 14 -104 4z m89
-60 c-2 -10 -14 -18 -29 -20 -21 -2 -26 1 -25 20 1 13 5 26 10 30 15 11 48
-12 44 -30z m159 -4 c0 -7 4 -21 8 -30 5 -14 2 -18 -14 -18 -24 0 -24 0 -11
34 10 28 16 33 17 14z"/>
<path d="M1105 1202 c-16 -11 -14 -185 2 -195 23 -14 29 0 28 62 0 34 2 61 5
61 3 0 19 -28 36 -63 22 -44 36 -62 50 -62 17 0 19 9 22 102 2 92 1 101 -15
99 -14 -2 -18 -13 -19 -55 -1 -28 -3 -53 -5 -56 -3 -2 -18 23 -33 56 -28 56
-46 69 -71 51z"/>
<path d="M1378 1193 c-2 -10 -4 -56 -3 -103 l0 -84 62 -3 c36 -1 65 2 69 9 10
16 -17 29 -53 24 -31 -4 -33 -2 -34 28 -1 41 -6 129 -7 139 -4 14 -30 7 -34
-10z"/>
<path d="M1554 1197 c-25 -14 -38 -35 -45 -77 -13 -69 28 -120 94 -115 61 4
91 42 84 109 -3 39 -10 54 -32 72 -30 24 -70 28 -101 11z m85 -50 c12 -23 11
-56 -4 -89 -11 -27 -61 -23 -76 5 -15 26 -13 75 3 94 18 22 63 16 77 -10z"/>
<path d="M1765 1201 c-52 -22 -72 -82 -48 -142 11 -28 22 -39 52 -48 46 -13
99 -5 109 18 7 13 8 52 3 83 -1 5 -35 5 -85 -1 -13 -2 15 -31 29 -31 14 0 27
-25 18 -34 -9 -9 -56 -7 -71 3 -7 4 -17 24 -21 43 -11 47 14 78 63 78 20 0 36
-4 36 -10 0 -5 9 -10 19 -10 14 0 18 5 14 20 -3 11 -9 23 -14 26 -16 10 -84
13 -104 5z"/>
<path d="M1907 1198 c-2 -7 3 -18 11 -24 10 -7 15 -31 16 -76 0 -36 -1 -65 -4
-63 -3 2 -12 0 -19 -5 -19 -11 21 -32 54 -27 34 4 41 14 23 34 -21 24 -22 129
-2 137 7 3 11 12 8 21 -8 19 -80 21 -87 3z"/>
<path d="M2042 1192 c-31 -24 -36 -58 -10 -82 18 -17 41 -25 51 -18 1 1 12 -4
24 -10 30 -17 19 -42 -19 -42 -16 0 -36 7 -45 15 -18 18 -22 16 -28 -13 -4
-23 10 -31 68 -38 30 -4 42 0 62 20 34 34 31 82 -6 90 -72 16 -80 20 -77 35 4
19 53 27 72 12 10 -8 16 -7 25 3 10 11 7 17 -11 30 -29 21 -77 20 -106 -2z"/>
<path d="M2174 1199 c-3 -6 -3 -13 1 -17 7 -7 13 -9 43 -11 16 -1 19 -11 19
-68 1 -100 2 -103 17 -103 18 0 24 22 24 85 0 98 -3 95 77 86 17 -2 15 -129
-1 -135 -8 -3 -11 -12 -8 -21 8 -21 79 -16 79 5 0 8 -4 14 -10 13 -15 -2 -12
122 4 140 7 9 10 20 7 25 -7 12 -244 13 -252 1z"/>
<path d="M2466 1201 c-11 -17 -2 -201 9 -201 20 0 32 15 29 35 -8 44 6 46 45
6 22 -23 45 -41 50 -41 23 0 17 20 -19 64 l-40 48 39 41 c22 23 37 45 35 49
-11 17 -34 6 -67 -32 -37 -44 -48 -49 -43 -22 7 37 -23 79 -38 53z"/>
<path d="M575 953 c-18 -13 -14 -43 6 -43 8 0 7 5 -2 18 -13 16 -13 16 6 0 19
-16 77 -17 775 -15 663 2 755 4 756 17 1 30 -17 36 -116 38 -78 1 -99 -1 -94
-11 5 -8 2 -7 -9 2 -14 11 -17 11 -17 0 0 -9 -3 -10 -8 -3 -7 12 -74 16 -67 4
2 -4 -2 -7 -10 -7 -8 0 -12 4 -9 9 8 13 -10 10 -25 -4 -8 -7 -11 -8 -8 -2 4 6
-8 10 -33 10 -21 0 -37 -3 -35 -6 2 -3 -6 -7 -18 -7 -17 -2 -19 0 -7 7 11 7 8
10 -13 10 -20 0 -26 -4 -21 -12 6 -10 4 -10 -7 0 -7 6 -19 12 -27 12 -8 0 -10
-5 -6 -12 5 -9 2 -9 -9 1 -14 11 -17 11 -17 0 0 -9 -3 -10 -8 -3 -7 12 -74 16
-67 4 2 -4 -2 -7 -10 -7 -8 0 -12 3 -10 7 2 3 -21 7 -50 8 -30 1 -56 -2 -60
-8 -3 -5 -12 -10 -18 -10 -7 0 -6 4 3 10 12 8 9 10 -13 10 -20 0 -26 -4 -21
-12 6 -10 5 -10 -7 -1 -12 10 -18 10 -29 0 -7 -6 -10 -7 -7 -1 3 6 -8 10 -30
11 -24 1 -31 -2 -22 -8 10 -6 8 -8 -8 -6 -12 0 -20 4 -18 7 2 3 -17 7 -41 8
-33 1 -43 -2 -38 -11 5 -8 2 -7 -9 2 -14 11 -17 11 -17 0 0 -9 -3 -10 -8 -3
-7 12 -74 16 -67 4 2 -4 -2 -7 -10 -7 -8 0 -12 4 -9 9 10 16 -15 7 -26 -9 -11
-17 -11 -17 -6 0 4 13 0 17 -17 17 -18 0 -19 -2 -7 -11 13 -9 12 -10 -2 -5
-10 3 -25 9 -35 13 -9 4 -14 2 -10 -3 3 -6 -4 -11 -16 -11 -17 -2 -19 0 -7 7
11 7 8 10 -13 10 -20 0 -26 -4 -21 -12 6 -10 5 -10 -7 -1 -12 10 -18 10 -29 0
-7 -6 -10 -7 -7 -1 3 6 -8 10 -30 11 -24 1 -31 -2 -22 -8 10 -6 8 -8 -8 -6
-12 0 -19 5 -16 10 3 5 0 7 -8 5 -8 -3 -13 -11 -11 -17 1 -7 -2 -10 -8 -6 -6
3 -8 11 -5 16 7 10 -8 12 -19 2 -10 -10 -37 -13 -31 -3 8 13 -31 8 -50 -7z
m1472 1 c-3 -3 -12 -4 -19 -1 -8 3 -5 6 6 6 11 1 17 -2 13 -5z m58 -4 c3 -5 1
-10 -4 -10 -6 0 -11 5 -11 10 0 6 2 10 4 10 3 0 8 -4 11 -10z"/>
</g>
</svg>
